<svg width="77" height="61" viewBox="0 0 77 61" fill="none" xmlns="http://www.w3.org/2000/svg">
<path d="M40.2733 15.518L40.187 15.4944C39.6901 15.3589 39.3858 14.8705 39.5428 14.3891C39.5428 14.389 39.5429 14.389 39.5429 14.389L39.6855 14.4355L40.2733 15.518ZM40.2733 15.518L40.2766 15.5145M40.2733 15.518L40.2766 15.5145M40.2766 15.5145C40.7449 15.598 41.2249 15.3461 41.3691 14.9009L40.2766 15.5145Z" fill="#483EA8" stroke="#F9FFF9" stroke-width="0.3"/>
<path d="M62.5036 43.3163H57.6791C57.2352 43.3163 56.875 42.9871 56.875 42.5812C56.875 42.1753 57.2352 41.846 57.6791 41.846H62.5036C69.1538 41.846 74.5648 36.8989 74.5648 30.8187C74.5648 24.7384 69.1538 19.7913 62.5036 19.7913H62.3875C62.1544 19.7913 61.9327 19.6989 61.7799 19.5377C61.6271 19.3765 61.5582 19.1627 61.5915 18.9516C61.6633 18.4937 61.6995 18.0337 61.6995 17.5858C61.6995 12.3163 57.0099 8.02873 51.2464 8.02873C49.0041 8.02873 46.8658 8.66937 45.0623 9.88184C44.666 10.1481 44.1032 10.0299 43.874 9.63135C38.7664 0.739132 25.4259 -0.455003 18.5095 7.28046C15.5959 10.5393 14.4511 14.7785 15.3684 18.9102C15.4695 19.3665 15.0875 19.7919 14.5804 19.7919H14.2582C7.60793 19.7919 2.19699 24.739 2.19699 30.8192C2.19699 36.8995 7.60793 41.8466 14.2582 41.8466H19.0826C19.5266 41.8466 19.8867 42.1758 19.8867 42.5817C19.8867 42.9877 19.5266 43.3169 19.0826 43.3169H14.2582C6.72103 43.3169 0.588745 37.7103 0.588745 30.8192C0.588745 24.1214 6.38153 18.6371 13.627 18.3346C12.9464 14.0481 14.2479 9.72427 17.2643 6.34996C24.6693 -1.93262 38.8604 -1.00425 44.8593 8.23144C46.7731 7.13447 48.963 6.559 51.2461 6.559C58.229 6.559 63.7622 11.9929 63.2781 18.3415C70.4568 18.7096 76.1727 24.1649 76.1727 30.8186C76.1727 37.7103 70.0404 43.3164 62.5032 43.3164L62.5036 43.3163Z" fill="#483EA8"/>
<path d="M18.0208 42.166C18.0208 52.3956 27.1188 60.6952 38.273 60.6952C49.4274 60.6952 58.5253 52.3955 58.5253 42.166C58.5253 31.9365 49.4274 23.6369 38.273 23.6369C27.1187 23.6369 18.0208 31.9366 18.0208 42.166ZM19.9293 42.166C19.9293 32.938 28.1455 25.4075 38.273 25.4075C48.4004 25.4075 56.6168 32.9379 56.6168 42.166C56.6168 51.394 48.4004 58.9245 38.273 58.9245C28.1457 58.9245 19.9293 51.3942 19.9293 42.166Z" fill="#483EA8" stroke="#F9FFF9" stroke-width="0.3"/>
<path d="M37.9019 49.5648C37.9019 49.9572 38.2456 50.253 38.6406 50.253C39.0354 50.253 39.3792 49.9576 39.3792 49.5648V35.571C39.3792 35.1786 39.0355 34.8828 38.6406 34.8828C38.2456 34.8828 37.9019 35.1786 37.9019 35.571V49.5648Z" fill="#483EA8" stroke="#483EA8" stroke-width="0.3"/>
<path d="M38.123 35.081C38.4099 34.8183 38.8707 34.8184 39.1579 35.081L43.8673 39.3868C44.1624 39.6565 44.1624 40.0996 43.8673 40.3694C43.7223 40.5023 43.5342 40.5663 43.3499 40.5663L38.123 35.081ZM38.123 35.081C38.1229 35.0811 38.1229 35.0811 38.1229 35.0811L38.123 35.081ZM42.8324 40.3694C42.9772 40.5017 43.1652 40.5663 43.3498 40.5663L34.4486 40.3694L34.4487 40.3693L38.6405 36.5368L42.8324 40.3694Z" fill="#483EA8" stroke="#483EA8" stroke-width="0.3"/>
</svg>
